# xmcd
#
# Track frame offsets:
#	150
#	13729
#	28906
#	43186
#	60229
#	76168
#	92798
#	108278
#	124783
#	143444
#	159701
#	170681
#	187033
#
# Disc length: 2701 seconds
#
# Revision: 1
# Processed by: cddbd v1.5.2PL0 Copyright (c) Steve Scherf et al.
# Submitted via: audiograbber 1.83.01
#
DISCID=a70a8b0d
DTITLE=J R Vautour - Break
DYEAR=2006
DGENRE=Canadian Country
TTITLE0=Going Home
TTITLE1=Miss You Already
TTITLE2=You Can
TTITLE3=Weak
TTITLE4=Break
TTITLE5=To Me
TTITLE6=Go With It
TTITLE7=Hangover
TTITLE8=If I Would've Known
TTITLE9=One On One
TTITLE10=I Give
TTITLE11=Why Me
TTITLE12=You Were There
EXTD=
EXTT0=
EXTT1=
EXTT2=
EXTT3=
EXTT4=
EXTT5=
EXTT6=
EXTT7=
EXTT8=
EXTT9=
EXTT10=
EXTT11=
EXTT12=
PLAYORDER=
